<svg width="135" height="70" viewBox="0 0 135 70" fill="none" xmlns="http://www.w3.org/2000/svg">
<g clip-path="url(#clip0_186_76)">
<g clip-path="url(#clip1_186_76)">
<path d="M12.438 -0.017195C12.5057 -0.017195 12.5057 -0.017195 12.5734 -0.017195C13.0474 -0.0229241 13.3859 0.14895 13.7312 0.412493C13.8057 0.481243 13.8802 0.549993 13.9547 0.624471C14.0359 0.710409 14.124 0.784888 14.2187 0.859368C17.5703 3.69531 20.9219 6.53125 47.125 28.7031C47.1589 28.726 47.1927 28.7547 47.2266 28.7833C47.538 29.0641 47.7411 29.3906 47.7344 29.7859C47.7208 29.8604 47.7073 29.9349 47.6937 30.0094C47.6937 30.0495 47.687 30.0839 47.687 30.124C47.6193 30.3703 47.45 30.6224 47.2469 30.8C47.2198 30.8 47.1927 30.8 47.1656 30.8C47.1656 30.8229 47.1656 30.8458 47.1656 30.8687C46.8135 31.1036 46.4344 31.224 45.9875 31.2182C45.9536 31.2182 45.9266 31.224 45.8927 31.224C45.7844 31.224 45.6828 31.2182 45.5745 31.2182C45.5 31.2182 45.4187 31.2182 45.3443 31.2182C45.1344 31.224 44.9177 31.2182 44.7078 31.2182C44.4844 31.2182 44.2542 31.2182 44.024 31.2182C43.6312 31.2182 43.2385 31.2182 42.8458 31.2182C42.2771 31.2182 41.7016 31.2182 41.1328 31.2182C40.212 31.2182 39.2844 31.2182 38.3568 31.2182C37.463 31.2182 36.5625 31.2182 35.662 31.2182C35.6213 31.2182 35.6213 31.2182 35.5807 31.2182C35.3031 31.2182 35.0255 31.2182 34.7479 31.2182C32.412 31.2125 30.0828 31.2125 27.7469 31.2125C27.7333 31.2469 27.7333 31.2469 27.713 31.2812C27.6656 31.35 27.6656 31.35 27.5437 31.3844C27.5302 31.4073 27.5167 31.4302 27.5031 31.4531C27.4896 31.476 27.476 31.499 27.4625 31.5219C27.4219 31.5333 27.3812 31.5448 27.3406 31.5562C27.3135 31.6021 27.2865 31.6479 27.2594 31.6937C27.2052 31.7453 27.1443 31.7969 27.0833 31.8484C26.975 31.9286 26.887 32.0146 26.7922 32.1062C26.7651 32.1406 26.7651 32.1406 26.7312 32.175C26.7042 32.175 26.6771 32.175 26.65 32.175C26.65 32.1979 26.65 32.2208 26.65 32.2437C26.5958 32.301 26.5958 32.301 26.5281 32.3469C26.501 32.3469 26.474 32.3469 26.4469 32.3469C26.4333 32.3698 26.4266 32.387 26.413 32.4099C26.3656 32.4844 26.3182 32.5359 26.2437 32.5932C26.2234 32.6104 26.1963 32.6333 26.176 32.6505C26.1354 32.6792 26.1354 32.6792 26.1016 32.7135C26.0474 32.7536 26 32.7937 25.9526 32.8339C25.9323 32.851 25.912 32.8682 25.8917 32.8854C25.8307 32.9312 25.8307 32.9312 25.7969 33C25.7698 33 25.7427 33 25.7156 33C25.7021 33.0344 25.6885 33.0687 25.675 33.1031C25.6479 33.1031 25.6208 33.1031 25.5937 33.1031C25.5937 33.126 25.5937 33.149 25.5937 33.1719C25.5667 33.1719 25.5396 33.1719 25.5125 33.1719C25.499 33.1891 25.4922 33.212 25.4786 33.2349C25.4245 33.3208 25.3635 33.3781 25.2755 33.4469C25.2349 33.4812 25.2349 33.4812 25.1875 33.5214C25.1401 33.5615 25.1401 33.5615 25.0927 33.6016C24.8557 33.7906 24.8557 33.7906 24.6458 33.9969C24.6187 34.0198 24.5984 34.0427 24.5781 34.0656C24.551 34.0656 24.524 34.0656 24.4969 34.0656C24.4969 34.0885 24.4969 34.1115 24.4969 34.1344C24.4698 34.1344 24.4427 34.1344 24.4156 34.1344C24.4021 34.1687 24.3885 34.2031 24.375 34.2375C24.3479 34.2375 24.3208 34.2375 24.2937 34.2375C24.2937 34.2604 24.2937 34.2833 24.2937 34.3062C24.2667 34.3062 24.2396 34.3062 24.2125 34.3062C24.199 34.3406 24.1854 34.375 24.1719 34.4094C24.1448 34.4094 24.1177 34.4094 24.0906 34.4094C24.0906 34.4323 24.0906 34.4552 24.0906 34.4781C24.0635 34.4781 24.0365 34.4781 24.0094 34.4781C23.9958 34.5068 23.9958 34.5068 23.9823 34.5354C23.9078 34.65 23.7927 34.7359 23.6844 34.8276C23.5219 34.9479 23.5219 34.9479 23.4 35.0969C23.3729 35.0969 23.3458 35.0969 23.3187 35.0969C23.3052 35.1141 23.2984 35.137 23.2849 35.1599C23.2307 35.2401 23.1698 35.2974 23.0885 35.3661C23.0615 35.3891 23.0344 35.412 23.0005 35.4406C22.9734 35.4635 22.9396 35.4865 22.9125 35.5151C22.8516 35.5609 22.7906 35.6125 22.7297 35.6641C22.6891 35.6927 22.6891 35.6927 22.6484 35.7271C22.5807 35.7844 22.5807 35.7844 22.5469 35.8531C22.5198 35.8531 22.4927 35.8531 22.4656 35.8531C22.4656 35.876 22.4656 35.899 22.4656 35.9219C22.4115 35.9792 22.4115 35.9792 22.3437 36.025C22.3167 36.025 22.2896 36.025 22.2625 36.025C22.249 36.0594 22.249 36.0594 22.2286 36.0937C22.1812 36.1625 22.1812 36.1625 22.0594 36.1969C22.0458 36.2198 22.0323 36.2427 22.0187 36.2656C22.0052 36.2885 21.9917 36.3115 21.9781 36.3344C21.9375 36.3458 21.8969 36.3573 21.8562 36.3687C21.8292 36.4146 21.8021 36.4604 21.775 36.5062C21.7208 36.5578 21.6599 36.6094 21.599 36.6609C21.4906 36.7411 21.4026 36.8271 21.3078 36.9187C21.2807 36.9531 21.2807 36.9531 21.2469 36.9875C21.2198 36.9875 21.1927 36.9875 21.1656 36.9875C21.1656 37.0104 21.1656 37.0333 21.1656 37.0562C21.1115 37.1135 21.1115 37.1135 21.0437 37.1594C21.0167 37.1594 20.9896 37.1594 20.9625 37.1594C20.949 37.1823 20.9422 37.1995 20.9286 37.2224C20.8812 37.2969 20.8338 37.3484 20.7594 37.4057C20.7391 37.4229 20.712 37.4458 20.6917 37.463C20.6646 37.4859 20.6375 37.5031 20.6172 37.526C20.563 37.5661 20.5156 37.6062 20.4682 37.6464C20.4479 37.6635 20.4276 37.6807 20.4073 37.6979C20.3464 37.7437 20.3464 37.7437 20.3125 37.8125C20.2854 37.8125 20.2583 37.8125 20.2312 37.8125C20.2177 37.8469 20.2042 37.8812 20.1906 37.9156C20.1635 37.9156 20.1365 37.9156 20.1094 37.9156C20.1094 37.9385 20.1094 37.9615 20.1094 37.9844C20.0823 37.9844 20.0552 37.9844 20.0281 37.9844C20.0146 38.013 20.0146 38.013 19.9943 38.0474C19.9401 38.1333 19.8792 38.1906 19.7911 38.2594C19.7641 38.2823 19.7302 38.3052 19.7031 38.3339C19.6693 38.3568 19.6422 38.3854 19.6083 38.4141C19.3714 38.6031 19.3714 38.6031 19.1615 38.8094C19.1344 38.8323 19.1141 38.8552 19.0937 38.8781C19.0667 38.8781 19.0396 38.8781 19.0125 38.8781C19.0125 38.901 19.0125 38.924 19.0125 38.9469C18.9854 38.9469 18.9583 38.9469 18.9312 38.9469C18.9177 38.9812 18.9042 39.0156 18.8906 39.05C18.8635 39.05 18.8365 39.05 18.8094 39.05C18.8094 39.0729 18.8094 39.0958 18.8094 39.1187C18.7823 39.1187 18.7552 39.1187 18.7281 39.1187C18.7146 39.1531 18.701 39.1875 18.6875 39.2219C18.6604 39.2219 18.6333 39.2219 18.6062 39.2219C18.6062 39.2448 18.6062 39.2677 18.6062 39.2906C18.5792 39.2906 18.5521 39.2906 18.525 39.2906C18.5115 39.3193 18.5115 39.3193 18.4979 39.3479C18.4234 39.4625 18.3083 39.5484 18.2 39.6401C18.0375 39.7604 18.0375 39.7604 17.9156 39.9094C17.8885 39.9094 17.8615 39.9094 17.8344 39.9094C17.8208 39.9266 17.8141 39.9495 17.8005 39.9724C17.7464 40.0526 17.6854 40.1099 17.6042 40.1786C17.5771 40.2016 17.55 40.2245 17.5161 40.2531C17.4891 40.276 17.4552 40.299 17.4281 40.3276C17.3672 40.3734 17.3062 40.425 17.2453 40.4766C17.2047 40.5052 17.2047 40.5052 17.1641 40.5396C17.0963 40.5969 17.0964 40.5969 17.0625 40.6656C17.0354 40.6656 17.0083 40.6656 16.9812 40.6656C16.9812 40.6885 16.9812 40.7115 16.9812 40.7344C16.9271 40.7917 16.9271 40.7917 16.8594 40.8375C16.8323 40.8375 16.8052 40.8375 16.7781 40.8375C16.7646 40.8719 16.7646 40.8719 16.7443 40.9062C16.6969 40.975 16.6969 40.975 16.575 41.0094C16.5615 41.0323 16.5479 41.0552 16.5344 41.0781C16.5208 41.101 16.5073 41.124 16.4937 41.1469C16.4531 41.1583 16.4125 41.1698 16.3719 41.1812C16.3448 41.2271 16.3177 41.2729 16.2906 41.3187C16.2365 41.3703 16.1755 41.4219 16.1146 41.4734C16.0062 41.5536 15.9182 41.6396 15.8234 41.7312C15.7964 41.7656 15.7964 41.7656 15.7625 41.8C15.7354 41.8 15.7083 41.8 15.6812 41.8C15.6812 41.8229 15.6812 41.8458 15.6812 41.8687C15.6271 41.926 15.6271 41.926 15.5594 41.9719C15.5323 41.9719 15.5052 41.9719 15.4781 41.9719C15.4646 41.9948 15.4578 42.012 15.4443 42.0349C15.3969 42.1094 15.3495 42.1609 15.275 42.2182C15.2547 42.2354 15.2276 42.2583 15.2073 42.2755C15.1802 42.2984 15.1531 42.3156 15.1328 42.3385C15.0786 42.3786 15.0312 42.4187 14.9839 42.4589C14.95 42.4818 14.95 42.4818 14.9229 42.5104C14.862 42.5562 14.862 42.5562 14.8281 42.625C14.801 42.625 14.774 42.625 14.7469 42.625C14.7333 42.6594 14.7198 42.6937 14.7062 42.7281C14.6792 42.7281 14.6521 42.7281 14.625 42.7281C14.625 42.751 14.625 42.774 14.625 42.7969C14.5979 42.7969 14.5708 42.7969 14.5437 42.7969C14.5302 42.8255 14.5302 42.8255 14.5099 42.8599C14.4557 42.9458 14.3948 43.0031 14.3135 43.0719C14.2797 43.0948 14.2526 43.1177 14.2187 43.1464C14.1917 43.1693 14.1578 43.1979 14.124 43.2266C14.0969 43.2495 14.063 43.2781 14.0292 43.301C13.9682 43.3526 13.9141 43.4042 13.8531 43.45C13.7854 43.5073 13.7245 43.5589 13.6635 43.6161C13.5687 43.6906 13.474 43.7536 13.3656 43.8167C13.3318 43.8396 13.2979 43.8568 13.2641 43.8797C12.8849 44.0802 12.3771 44.0344 11.9437 44C11.7609 43.9542 11.6391 43.8969 11.4969 43.7937C11.4698 43.7766 11.4359 43.7594 11.4088 43.7365C11.0229 43.4786 10.8266 43.1349 10.7656 42.7281C10.7521 42.499 10.7521 42.2698 10.7521 42.0406C10.7521 41.9661 10.7521 41.8974 10.7521 41.8286C10.7521 41.6339 10.7521 41.4333 10.7521 41.2385C10.7521 41.0266 10.7521 40.8146 10.7521 40.6026C10.7521 40.2302 10.7521 39.8578 10.7521 39.4854C10.7521 39.0844 10.7521 38.6833 10.7521 38.288C10.7521 38.2594 10.7521 38.2365 10.7521 38.2078C10.7521 38.1047 10.7521 38.0016 10.7521 37.8984C10.7521 36.8557 10.7521 35.813 10.7521 34.7703C10.7521 34.6214 10.7521 34.4781 10.7521 34.3349C10.7521 34.3062 10.7521 34.2776 10.7521 34.249C10.7521 33.613 10.7521 32.9771 10.7521 32.3411C10.7521 32.1979 10.7521 32.0547 10.7521 31.9115C10.7521 31.8484 10.7521 31.7911 10.7521 31.7339C10.7521 31.7052 10.7521 31.6766 10.7521 31.6479C10.7521 31.5906 10.7521 31.5276 10.7521 31.4703C10.7521 29.8146 10.7521 28.1589 10.7521 26.5031C10.7521 26.4745 10.7521 26.4458 10.7521 26.4115C10.7521 26.0734 10.7521 25.7297 10.7521 25.3859C10.7521 25.3573 10.7521 25.3229 10.7521 25.2943C10.7521 25.0365 10.7521 25.0365 10.7521 24.9219C10.7521 22.9453 10.7521 20.9687 10.7521 18.9979C10.7521 18.4995 10.7521 18.001 10.7521 17.5026C10.7521 17.474 10.7521 17.4396 10.7521 17.4109C10.7521 16.4656 10.7521 15.5203 10.7521 14.5807C10.7521 14.5463 10.7521 14.5177 10.7521 14.4891C10.7521 13.8359 10.7521 13.1885 10.7521 12.5354C10.7521 12.3062 10.7521 12.0713 10.7521 11.8365C10.7521 11.7792 10.7521 11.7219 10.7521 11.6646C10.7521 10.7422 10.7521 9.81978 10.7521 8.89739C10.7521 7.94062 10.7521 6.98385 10.7521 6.03281C10.7521 5.92968 10.7521 5.82656 10.7521 5.72343C10.7521 5.68333 10.7521 5.68333 10.7521 5.64895C10.7521 5.24791 10.7521 4.84687 10.7521 4.45156C10.7521 4.05624 10.7521 3.66666 10.7521 3.27708C10.7521 3.0651 10.7521 2.85312 10.7521 2.64687C10.7521 2.4578 10.7521 2.26301 10.7521 2.07395C10.7521 2.0052 10.7521 1.93645 10.7521 1.8677C10.7453 1.26041 10.813 0.779159 11.3208 0.320826C11.6594 0.0458259 11.9844 -0.0114658 12.438 -0.017195ZM13.0406 2.57812C13.0406 15.3828 13.0406 28.1932 13.0406 41.3875C13.1219 41.3302 13.2031 41.2729 13.2844 41.2156C13.2844 41.1927 13.2844 41.1698 13.2844 41.1469C13.3115 41.1469 13.3385 41.1469 13.3656 41.1469C13.4333 41.101 13.4333 41.101 13.4875 41.0437C13.4875 41.0208 13.4875 40.9979 13.4875 40.975C13.5146 40.975 13.5417 40.975 13.5687 40.975C13.6365 40.9292 13.6365 40.9292 13.6906 40.8719C13.6906 40.849 13.6906 40.826 13.6906 40.8031C13.7177 40.8031 13.7448 40.8031 13.7719 40.8031C13.826 40.7573 13.826 40.7573 13.887 40.6943C14.0224 40.5568 14.1713 40.4307 14.3203 40.3047C14.4828 40.1672 14.6385 40.0297 14.7875 39.8807C14.9365 39.7432 15.0922 39.6172 15.2479 39.4854C15.2885 39.4568 15.2885 39.4568 15.3224 39.4281C15.3427 39.4109 15.3698 39.3937 15.3901 39.3708C15.4443 39.325 15.4443 39.325 15.4375 39.2562C15.4646 39.2562 15.4917 39.2562 15.5187 39.2562C15.5187 39.2333 15.5187 39.2104 15.5187 39.1875C15.5594 39.176 15.6 39.1646 15.6406 39.1531C15.6406 39.1302 15.6406 39.1073 15.6406 39.0844C15.6677 39.0844 15.6948 39.0844 15.7219 39.0844C15.776 39.0385 15.776 39.0385 15.837 38.9755C15.9995 38.8094 16.1755 38.6604 16.3583 38.5115C16.4193 38.4656 16.4802 38.4141 16.5344 38.3625C16.5344 38.3396 16.5344 38.3167 16.5344 38.2937C16.5615 38.2937 16.5885 38.2937 16.6156 38.2937C16.6156 38.2708 16.6156 38.2479 16.6156 38.225C16.6562 38.2135 16.6969 38.2021 16.7375 38.1906C16.7375 38.1677 16.7375 38.1448 16.7375 38.1219C16.7646 38.1219 16.7917 38.1219 16.8187 38.1219C16.8187 38.099 16.8187 38.076 16.8187 38.0531C16.8594 38.0417 16.9 38.0302 16.9406 38.0187C16.9406 37.9958 16.9406 37.9729 16.9406 37.95C16.9677 37.95 16.9948 37.95 17.0219 37.95C17.0828 37.8984 17.0828 37.8984 17.1437 37.8297C17.2859 37.6865 17.4417 37.5604 17.6042 37.4286C17.6786 37.3714 17.6786 37.3714 17.6719 37.2969C17.699 37.2969 17.726 37.2969 17.7531 37.2969C17.8141 37.2453 17.8141 37.2453 17.875 37.1823C18.0781 36.9818 18.3016 36.7984 18.525 36.6151C18.5521 36.5865 18.5859 36.5635 18.6198 36.5349C18.6469 36.512 18.674 36.4891 18.7078 36.4661C18.7755 36.4089 18.7755 36.4089 18.7687 36.3344C18.7958 36.3344 18.8229 36.3344 18.85 36.3344C18.9177 36.2885 18.9177 36.2885 18.9719 36.2312C18.9719 36.2083 18.9719 36.1854 18.9719 36.1625C18.999 36.1625 19.026 36.1625 19.0531 36.1625C19.1208 36.1167 19.1208 36.1167 19.175 36.0594C19.175 36.0365 19.175 36.0135 19.175 35.9906C19.2021 35.9906 19.2292 35.9906 19.2562 35.9906C19.3104 35.9448 19.3104 35.9448 19.3714 35.8818C19.5068 35.7443 19.6557 35.6182 19.8047 35.4922C19.9672 35.3547 20.1229 35.2172 20.2719 35.0682C20.4208 34.9307 20.5766 34.8047 20.7323 34.6729C20.7729 34.6443 20.7729 34.6443 20.8068 34.6156C20.8271 34.5984 20.8542 34.5812 20.8745 34.5583C20.9286 34.5125 20.9286 34.5125 20.9219 34.4437C20.949 34.4437 20.976 34.4437 21.0031 34.4437C21.0031 34.4208 21.0031 34.3979 21.0031 34.375C21.0437 34.3635 21.0844 34.3521 21.125 34.3406C21.125 34.3177 21.125 34.2948 21.125 34.2719C21.1521 34.2719 21.1792 34.2719 21.2062 34.2719C21.274 34.2146 21.274 34.2146 21.3417 34.1458C21.4771 34.0083 21.626 33.8823 21.7818 33.7562C21.8224 33.7161 21.8224 33.7161 21.8698 33.6818C21.9104 33.6474 21.9104 33.6474 21.9578 33.613C22.0255 33.5557 22.0255 33.5557 22.0187 33.4812C22.0458 33.4812 22.0729 33.4812 22.1 33.4812C22.1 33.4583 22.1 33.4354 22.1 33.4125C22.1406 33.401 22.1812 33.3896 22.2219 33.3781C22.2219 33.3552 22.2219 33.3323 22.2219 33.3094C22.249 33.3094 22.276 33.3094 22.3031 33.3094C22.3031 33.2865 22.3031 33.2635 22.3031 33.2406C22.3437 33.2292 22.3844 33.2177 22.425 33.2062C22.425 33.1833 22.425 33.1604 22.425 33.1375C22.4521 33.1375 22.4792 33.1375 22.5062 33.1375C22.5672 33.0859 22.5672 33.0859 22.6281 33.0172C22.7703 32.874 22.926 32.7479 23.0885 32.6161C23.163 32.5589 23.163 32.5589 23.1562 32.4844C23.1833 32.4844 23.2104 32.4844 23.2375 32.4844C23.2984 32.4328 23.2984 32.4328 23.3594 32.3698C23.5625 32.1693 23.7859 31.9859 24.0094 31.8026C24.0365 31.774 24.0703 31.751 24.1042 31.7224C24.1312 31.6995 24.1583 31.6766 24.1922 31.6536C24.2599 31.5964 24.2599 31.5964 24.2531 31.5219C24.2802 31.5219 24.3073 31.5219 24.3344 31.5219C24.4021 31.476 24.4021 31.476 24.4562 31.4187C24.4562 31.3958 24.4562 31.3729 24.4562 31.35C24.4833 31.35 24.5104 31.35 24.5375 31.35C24.6052 31.3042 24.6052 31.3042 24.6594 31.2469C24.6594 31.224 24.6594 31.201 24.6594 31.1781C24.6865 31.1781 24.7135 31.1781 24.7406 31.1781C24.8016 31.1323 24.8016 31.1323 24.8625 31.0635C25.0047 30.9203 25.1672 30.7828 25.3297 30.651C25.3771 30.6109 25.4245 30.5651 25.4719 30.525C25.4719 30.5021 25.4719 30.4792 25.4719 30.4562C25.499 30.4562 25.526 30.4562 25.5531 30.4562C25.6141 30.4104 25.6141 30.4104 25.675 30.3417C25.8172 30.1984 25.9797 30.0609 26.1422 29.9292C26.1896 29.8891 26.237 29.8432 26.2844 29.8031C26.2844 29.7802 26.2844 29.7573 26.2844 29.7344C26.325 29.7229 26.3656 29.7115 26.4062 29.7C26.4062 29.6771 26.4062 29.6542 26.4062 29.6312C26.4333 29.6312 26.4604 29.6312 26.4875 29.6312C26.4875 29.6083 26.4875 29.5854 26.4875 29.5625C26.5078 29.551 26.5349 29.5453 26.5552 29.5339C26.65 29.4937 26.65 29.4937 26.7448 29.4422C26.9615 29.3391 27.151 29.3104 27.4016 29.3104C27.4286 29.3104 27.4625 29.3104 27.4896 29.3104C27.5911 29.3104 27.6927 29.3104 27.7875 29.3104C27.862 29.3104 27.9365 29.3104 28.0042 29.3104C28.2073 29.3104 28.4036 29.3104 28.6 29.3104C28.8167 29.3104 29.0333 29.3104 29.2432 29.3104C29.6156 29.3104 29.988 29.3104 30.3604 29.3104C30.8953 29.3104 31.4302 29.3047 31.9651 29.3047C32.8385 29.3047 33.7052 29.3047 34.5786 29.3047C35.425 29.299 36.2714 29.299 37.1177 29.299C37.1922 29.299 37.1922 29.299 37.2734 29.299C37.5375 29.299 37.7948 29.299 38.0589 29.299C40.2255 29.2932 42.399 29.2875 44.5656 29.2875C44.4979 29.1557 44.3896 29.0641 44.2745 28.9609C44.2406 28.9323 44.2406 28.9323 44.2068 28.9036C44.1323 28.8406 44.0578 28.7833 43.9833 28.7203C43.9292 28.6745 43.875 28.6286 43.8208 28.5828C43.6719 28.4568 43.5229 28.3307 43.3807 28.2047C43.2182 28.0672 43.0557 27.9297 42.8932 27.7979C42.6089 27.5573 42.3312 27.3167 42.0469 27.076C41.7422 26.8182 41.4375 26.5661 41.1328 26.3083C41.1125 26.2911 41.099 26.274 41.0786 26.2568C40.9771 26.1766 40.8823 26.0906 40.7807 26.0104C40.0766 25.4089 39.3656 24.813 38.6615 24.2172C37.9573 23.6213 37.2599 23.0312 36.5557 22.4354C36.5151 22.401 36.4677 22.3609 36.4271 22.3266C36.251 22.1776 36.075 22.0229 35.899 21.874C35.4047 21.4557 34.9104 21.0375 34.4161 20.625C34.3958 20.6021 34.3687 20.5849 34.3484 20.562C33.6307 19.9604 32.913 19.3531 32.1953 18.7458C32.175 18.7229 32.1479 18.7057 32.1276 18.6828C31.7484 18.3677 31.3693 18.0469 30.9901 17.726C29.4937 16.4599 27.9974 15.1937 26.4943 13.9219C26.4469 13.8818 26.3995 13.8417 26.3521 13.8016C26.2573 13.7213 26.1625 13.6411 26.0677 13.5609C25.8578 13.3833 25.6479 13.2057 25.4312 13.0224C25.3906 12.9823 25.3432 12.9422 25.2958 12.9078C24.0365 11.8422 22.7839 10.7823 21.5312 9.72239C21.5109 9.7052 21.4838 9.68228 21.4635 9.6651C21.1656 9.41302 21.1656 9.41302 20.8677 9.16093C20.387 8.75416 19.9062 8.34739 19.4255 7.94062C19.4052 7.92343 19.3781 7.90051 19.3578 7.88333C19.2698 7.80885 19.1818 7.73437 19.0937 7.65989C18.2812 6.97239 17.4687 6.28489 16.6562 5.59739C16.5818 5.53437 16.5005 5.47135 16.426 5.4026C16.399 5.37968 16.399 5.37968 16.3651 5.35676C16.0469 5.08176 15.7219 4.81249 15.4036 4.53749C15.126 4.3026 14.8484 4.0677 14.5641 3.83281C14.4083 3.69531 14.2458 3.56354 14.0901 3.42604C13.9479 3.30572 13.799 3.17968 13.6568 3.05937C13.6026 3.01354 13.5484 2.97343 13.501 2.9276C13.4266 2.86458 13.3589 2.80728 13.2844 2.74999C13.2573 2.72135 13.2573 2.72135 13.2234 2.6927C13.149 2.61249 13.149 2.61249 13.0406 2.57812Z" fill="#3B82F6"/>
</g>
</g>
<rect x="52" y="34" width="83" height="36" fill="#3B82F6"/>
<path d="M80.672 58.64C80.464 58.368 80.288 58.072 80.144 57.752C80 57.416 79.848 57.016 79.688 56.552C79.656 56.472 79.56 56.232 79.4 55.832C79.256 55.432 79.088 55.088 78.896 54.8C77.888 54.944 77.064 55.016 76.424 55.016C76.072 55.016 75.68 55.008 75.248 54.992C74.832 54.96 74.52 54.944 74.312 54.944C73.512 54.88 72.872 54.848 72.392 54.848C72.2 55.104 72.032 55.376 71.888 55.664C71.76 55.952 71.592 56.384 71.384 56.96C71.096 57.792 70.848 58.384 70.64 58.736C70.496 58.976 70.216 59.096 69.8 59.096C69.448 59.096 69.12 59.024 68.816 58.88C68.528 58.72 68.384 58.504 68.384 58.232C68.512 57.624 68.712 56.984 68.984 56.312C69.272 55.624 69.68 54.712 70.208 53.576L71.168 51.224C71.696 49.88 72.176 48.728 72.608 47.768C73.056 46.808 73.64 45.672 74.36 44.36C74.456 44.168 74.616 44.008 74.84 43.88C75.064 43.736 75.312 43.664 75.584 43.664C75.888 43.664 76.104 43.688 76.232 43.736C76.376 43.768 76.488 43.832 76.568 43.928C76.648 44.008 76.768 44.184 76.928 44.456C77.472 45.304 77.936 46.176 78.32 47.072C78.72 47.968 79.224 49.208 79.832 50.792L80.336 52.064C80.784 53.216 81.168 54.184 81.488 54.968C81.824 55.736 82.192 56.44 82.592 57.08C82.848 57.496 82.976 57.784 82.976 57.944C82.976 58.328 82.856 58.624 82.616 58.832C82.392 59.024 82.096 59.12 81.728 59.12C81.264 59.12 80.912 58.96 80.672 58.64ZM78.2 52.832C77.944 52.288 77.576 51.344 77.096 50C76.6 48.56 76.104 47.416 75.608 46.568C75.304 47.336 74.856 48.328 74.264 49.544C73.864 50.296 73.408 51.384 72.896 52.808C73.92 52.936 75.024 53 76.208 53C77.056 53 77.72 52.944 78.2 52.832ZM87.3116 55.28C87.3116 55.888 87.3996 56.36 87.5756 56.696C87.7676 57.016 88.0076 57.176 88.2956 57.176C88.4556 57.176 88.6076 57.168 88.7516 57.152C88.8956 57.12 89.0396 57.104 89.1836 57.104C89.3436 57.104 89.4796 57.184 89.5916 57.344C89.7196 57.504 89.7836 57.68 89.7836 57.872C89.7836 58.256 89.5996 58.56 89.2316 58.784C88.8796 58.992 88.3996 59.096 87.7916 59.096C87.3596 59.096 86.9196 58.968 86.4716 58.712C86.0396 58.44 85.6796 58.024 85.3916 57.464C85.1036 56.888 84.9596 56.176 84.9596 55.328C84.9596 53.504 84.9916 51.96 85.0556 50.696C85.1356 49.192 85.1756 47.296 85.1756 45.008C85.1756 44.288 85.2156 43.784 85.2956 43.496C85.3916 43.272 85.5436 43.104 85.7516 42.992C85.9756 42.864 86.2076 42.8 86.4476 42.8C86.6876 42.8 86.8956 42.84 87.0716 42.92C87.2636 43 87.3916 43.128 87.4556 43.304C87.5196 43.496 87.5596 43.688 87.5756 43.88C87.6076 44.056 87.6236 44.312 87.6236 44.648C87.6236 45.304 87.5996 45.936 87.5516 46.544C87.5196 47.28 87.5036 47.816 87.5036 48.152C87.3756 50.968 87.3116 53.344 87.3116 55.28ZM91.2284 53.912C91.2284 53.304 91.3404 52.696 91.5644 52.088C91.7884 51.464 92.0844 50.896 92.4524 50.384C92.8204 49.872 93.4044 49.456 94.2044 49.136C95.0044 48.8 95.7164 48.632 96.3404 48.632C96.9804 48.632 97.6284 48.72 98.2844 48.896C98.9564 49.072 99.4204 49.344 99.6764 49.712C100.268 50.544 100.564 51.36 100.564 52.16C100.564 52.592 100.468 52.96 100.276 53.264C100.1 53.568 99.8444 53.896 99.5084 54.248C99.2364 54.536 98.8044 54.728 98.2124 54.824C97.6364 54.92 97.0604 54.968 96.4844 54.968C96.1164 54.968 95.6684 54.936 95.1404 54.872C94.6124 54.792 94.1004 54.696 93.6044 54.584C93.6364 54.904 93.7164 55.216 93.8444 55.52C93.9724 55.824 94.1244 56.056 94.3004 56.216C94.6204 56.52 94.9484 56.712 95.2844 56.792C95.6364 56.872 96.0844 56.912 96.6284 56.912C97.2044 56.912 97.7404 56.816 98.2364 56.624C98.6364 56.48 98.9644 56.408 99.2204 56.408C99.5244 56.408 99.7564 56.504 99.9164 56.696C100.076 56.872 100.156 57.104 100.156 57.392C100.156 57.792 99.9244 58.12 99.4604 58.376C98.9964 58.632 98.4604 58.824 97.8524 58.952C97.2604 59.064 96.7804 59.12 96.4124 59.12C95.6604 59.12 94.9324 58.984 94.2284 58.712C93.5244 58.44 92.9404 58.056 92.4764 57.56C92.0924 57.112 91.7884 56.576 91.5644 55.952C91.3404 55.312 91.2284 54.632 91.2284 53.912ZM96.4604 50.672C96.1084 50.672 95.7564 50.744 95.4044 50.888C95.0524 51.016 94.7644 51.2 94.5404 51.44C94.2524 51.744 94.0524 51.992 93.9404 52.184C93.8444 52.36 93.7804 52.608 93.7484 52.928C94.1484 53.056 94.9804 53.12 96.2444 53.12C96.9324 53.12 97.4604 53.016 97.8284 52.808C98.2124 52.6 98.4044 52.328 98.4044 51.992C98.4044 51.656 98.1964 51.352 97.7804 51.08C97.3644 50.808 96.9244 50.672 96.4604 50.672ZM103.914 43.592C104.474 43.64 104.946 43.776 105.33 44C105.714 44.224 105.906 44.584 105.906 45.08C105.906 45.448 105.746 45.744 105.426 45.968C105.122 46.176 104.738 46.28 104.274 46.28C103.794 46.28 103.458 46.168 103.266 45.944C103.09 45.72 103.002 45.488 103.002 45.248C103.002 44.784 103.058 44.392 103.17 44.072C103.282 43.736 103.53 43.576 103.914 43.592ZM104.706 48.584C105.09 48.584 105.386 48.696 105.594 48.92C105.802 49.128 105.906 49.352 105.906 49.592C105.906 49.736 105.89 49.984 105.858 50.336C105.81 50.864 105.786 51.392 105.786 51.92C105.786 52.592 105.81 53.256 105.858 53.912C105.89 54.584 105.906 55.072 105.906 55.376C105.97 57.36 106.002 58.976 106.002 60.224C106.002 61.44 105.698 62.352 105.09 62.96C104.498 63.584 103.674 63.896 102.618 63.896C102.298 63.896 101.954 63.768 101.586 63.512C101.218 63.272 101.034 63.008 101.034 62.72C101.034 62.48 101.098 62.288 101.226 62.144C101.354 62 101.506 61.928 101.682 61.928C101.794 61.928 101.938 61.952 102.114 62C102.306 62.048 102.45 62.072 102.546 62.072C102.818 62.072 103.034 62.032 103.194 61.952C103.354 61.872 103.482 61.672 103.578 61.352C103.674 61.032 103.722 60.536 103.722 59.864C103.722 56.328 103.634 53.6 103.458 51.68C103.362 50.72 103.314 49.992 103.314 49.496C103.314 49.272 103.426 49.064 103.65 48.872C103.89 48.68 104.242 48.584 104.706 48.584ZM118.244 51.296C118.372 51.52 118.476 51.848 118.556 52.28C118.636 52.696 118.676 53.072 118.676 53.408C118.676 53.84 118.628 54.32 118.532 54.848C118.436 55.376 118.348 55.784 118.268 56.072C117.164 58.088 115.532 59.096 113.372 59.096C112.572 59.096 111.756 58.832 110.924 58.304C110.092 57.776 109.516 57.168 109.196 56.48C108.764 55.12 108.548 54.248 108.548 53.864C108.548 53.224 108.684 52.544 108.956 51.824C109.244 51.104 109.604 50.48 110.036 49.952C110.324 49.584 110.82 49.272 111.524 49.016C112.228 48.744 112.868 48.608 113.444 48.608C114.564 48.608 115.508 48.824 116.276 49.256C117.06 49.672 117.716 50.352 118.244 51.296ZM116.156 55.16C116.236 55 116.276 54.464 116.276 53.552C116.276 53.088 116.188 52.632 116.012 52.184C115.852 51.736 115.612 51.352 115.292 51.032C115.26 51 115.172 50.952 115.028 50.888C114.884 50.808 114.684 50.736 114.428 50.672C114.188 50.592 113.908 50.552 113.588 50.552C112.692 50.552 112.036 50.912 111.62 51.632C111.204 52.352 110.996 53.168 110.996 54.08C110.996 54.224 111.044 54.52 111.14 54.968C111.236 55.416 111.308 55.704 111.356 55.832C111.484 56.056 111.74 56.32 112.124 56.624C112.524 56.912 112.956 57.056 113.42 57.056C114.14 57.056 114.708 56.888 115.124 56.552C115.556 56.2 115.9 55.736 116.156 55.16Z" fill="white"/>
<defs>
<clipPath id="clip0_186_76">
<rect width="52" height="44" fill="white"/>
</clipPath>
<clipPath id="clip1_186_76">
<rect width="52" height="44" fill="white"/>
</clipPath>
</defs>
</svg>
