<?xml version="1.0" encoding="UTF-8"?>
<svg xmlns="http://www.w3.org/2000/svg" xmlns:xlink="http://www.w3.org/1999/xlink" width="25px" height="25px" viewBox="0 0 25 25" version="1.1">
<g id="surface1">
<path style=" stroke:none;fill-rule:nonzero;fill:rgb(0%,0%,0%);fill-opacity:1;" d="M 9.582031 -0.00390625 C 9.605469 -0.00390625 9.605469 -0.00390625 9.628906 -0.00390625 C 9.660156 -0.00390625 9.695312 -0.00390625 9.726562 -0.00390625 C 9.773438 -0.00390625 9.824219 -0.00390625 9.871094 -0.0078125 C 10.167969 -0.0078125 10.167969 -0.0078125 10.3125 0.0585938 C 10.34375 0.0703125 10.34375 0.0703125 10.375 0.0820312 C 10.515625 0.136719 10.636719 0.207031 10.761719 0.292969 C 10.785156 0.308594 10.785156 0.308594 10.804688 0.320312 C 10.835938 0.34375 10.867188 0.367188 10.898438 0.390625 C 10.898438 0.402344 10.898438 0.417969 10.898438 0.429688 C 10.910156 0.429688 10.925781 0.429688 10.9375 0.429688 C 11.132812 0.621094 11.273438 0.847656 11.351562 1.105469 C 11.363281 1.152344 11.363281 1.152344 11.386719 1.171875 C 11.449219 1.453125 11.453125 1.730469 11.453125 2.015625 C 11.453125 2.0625 11.453125 2.109375 11.453125 2.15625 C 11.453125 2.257812 11.453125 2.359375 11.453125 2.460938 C 11.453125 2.613281 11.453125 2.765625 11.453125 2.914062 C 11.453125 3.167969 11.453125 3.421875 11.453125 3.675781 C 11.453125 4.023438 11.453125 4.371094 11.453125 4.71875 C 11.453125 4.878906 11.453125 5.039062 11.453125 5.203125 C 11.453125 5.21875 11.453125 5.234375 11.453125 5.25 C 11.453125 5.636719 11.453125 6.019531 11.453125 6.40625 C 11.453125 6.421875 11.453125 6.4375 11.453125 6.457031 C 11.453125 6.832031 11.453125 7.207031 11.453125 7.582031 C 11.453125 7.738281 11.453125 7.890625 11.453125 8.042969 C 11.453125 8.0625 11.453125 8.078125 11.453125 8.09375 C 11.453125 8.480469 11.453125 8.863281 11.453125 9.25 C 11.453125 9.273438 11.453125 9.273438 11.453125 9.296875 C 11.453125 9.460938 11.453125 9.621094 11.453125 9.78125 C 11.453125 10.128906 11.453125 10.472656 11.453125 10.820312 C 11.453125 11.074219 11.453125 11.324219 11.453125 11.578125 C 11.457031 11.726562 11.453125 11.878906 11.453125 12.027344 C 11.453125 12.140625 11.453125 12.25 11.453125 12.363281 C 11.453125 12.410156 11.453125 12.453125 11.453125 12.5 C 11.453125 12.558594 11.453125 12.621094 11.457031 12.683594 C 11.453125 12.699219 11.453125 12.71875 11.453125 12.738281 C 11.457031 12.820312 11.457031 12.859375 11.503906 12.929688 C 11.566406 12.992188 11.601562 13.007812 11.6875 13.011719 C 11.753906 13.007812 11.796875 12.996094 11.855469 12.96875 C 11.855469 12.957031 11.855469 12.941406 11.855469 12.929688 C 11.867188 12.929688 11.882812 12.929688 11.894531 12.929688 C 11.917969 12.839844 11.917969 12.753906 11.917969 12.664062 C 11.917969 12.648438 11.917969 12.628906 11.917969 12.613281 C 11.917969 12.558594 11.917969 12.5 11.917969 12.445312 C 11.917969 12.402344 11.917969 12.363281 11.917969 12.324219 C 11.917969 12.234375 11.917969 12.148438 11.917969 12.0625 C 11.917969 11.921875 11.921875 11.785156 11.921875 11.644531 C 11.921875 11.351562 11.921875 11.058594 11.921875 10.765625 C 11.925781 10.449219 11.925781 10.132812 11.925781 9.816406 C 11.929688 9.679688 11.929688 9.542969 11.929688 9.40625 C 11.929688 9.320312 11.929688 9.234375 11.929688 9.148438 C 11.929688 9.109375 11.929688 9.070312 11.929688 9.03125 C 11.929688 8.601562 11.949219 8.242188 12.148438 7.851562 C 12.160156 7.851562 12.175781 7.851562 12.1875 7.851562 C 12.191406 7.839844 12.191406 7.828125 12.195312 7.816406 C 12.253906 7.617188 12.5 7.410156 12.675781 7.304688 C 12.695312 7.304688 12.714844 7.304688 12.734375 7.304688 C 12.734375 7.292969 12.734375 7.277344 12.734375 7.265625 C 12.863281 7.195312 12.992188 7.144531 13.132812 7.105469 C 13.183594 7.09375 13.183594 7.09375 13.203125 7.070312 C 13.382812 7.039062 13.570312 7.046875 13.75 7.050781 C 13.769531 7.050781 13.789062 7.050781 13.808594 7.050781 C 14.132812 7.070312 14.46875 7.246094 14.707031 7.460938 C 14.707031 7.472656 14.707031 7.488281 14.707031 7.5 C 14.726562 7.507812 14.746094 7.511719 14.765625 7.519531 C 14.765625 7.53125 14.765625 7.546875 14.765625 7.558594 C 14.777344 7.558594 14.792969 7.558594 14.804688 7.558594 C 14.835938 7.597656 14.867188 7.632812 14.898438 7.675781 C 14.90625 7.6875 14.917969 7.699219 14.925781 7.710938 C 15.242188 8.136719 15.257812 8.613281 15.257812 9.121094 C 15.257812 9.164062 15.257812 9.203125 15.257812 9.246094 C 15.257812 9.332031 15.257812 9.421875 15.257812 9.507812 C 15.257812 9.648438 15.257812 9.785156 15.257812 9.925781 C 15.257812 9.949219 15.257812 9.972656 15.257812 9.996094 C 15.257812 10.046875 15.257812 10.09375 15.257812 10.140625 C 15.257812 10.464844 15.257812 10.789062 15.257812 11.113281 C 15.257812 11.328125 15.257812 11.546875 15.257812 11.765625 C 15.257812 11.882812 15.257812 12 15.257812 12.113281 C 15.257812 12.222656 15.257812 12.332031 15.257812 12.441406 C 15.257812 12.480469 15.257812 12.519531 15.257812 12.558594 C 15.257812 12.613281 15.257812 12.667969 15.257812 12.722656 C 15.257812 12.746094 15.257812 12.746094 15.257812 12.769531 C 15.257812 12.828125 15.261719 12.875 15.300781 12.921875 C 15.390625 13 15.449219 13.015625 15.566406 13.007812 C 15.621094 12.992188 15.621094 12.992188 15.664062 12.96875 C 15.664062 12.957031 15.664062 12.941406 15.664062 12.929688 C 15.675781 12.929688 15.691406 12.929688 15.703125 12.929688 C 15.71875 12.839844 15.726562 12.75 15.726562 12.660156 C 15.726562 12.648438 15.726562 12.632812 15.726562 12.621094 C 15.726562 12.578125 15.726562 12.535156 15.726562 12.496094 C 15.726562 12.464844 15.726562 12.433594 15.726562 12.402344 C 15.726562 12.335938 15.726562 12.273438 15.726562 12.207031 C 15.726562 12.101562 15.730469 12 15.730469 11.894531 C 15.730469 11.675781 15.730469 11.457031 15.734375 11.238281 C 15.734375 11 15.734375 10.761719 15.734375 10.523438 C 15.738281 10.421875 15.738281 10.320312 15.738281 10.21875 C 15.738281 10.152344 15.738281 10.089844 15.738281 10.023438 C 15.738281 9.996094 15.738281 9.964844 15.738281 9.9375 C 15.738281 9.460938 15.738281 9.460938 15.820312 9.238281 C 15.824219 9.222656 15.832031 9.207031 15.835938 9.191406 C 15.902344 9.003906 16.019531 8.820312 16.152344 8.671875 C 16.164062 8.671875 16.179688 8.671875 16.191406 8.671875 C 16.195312 8.660156 16.203125 8.648438 16.207031 8.632812 C 16.230469 8.59375 16.230469 8.59375 16.289062 8.574219 C 16.289062 8.5625 16.289062 8.546875 16.289062 8.535156 C 16.355469 8.476562 16.355469 8.476562 16.40625 8.476562 C 16.40625 8.464844 16.40625 8.449219 16.40625 8.4375 C 16.707031 8.253906 16.988281 8.136719 17.34375 8.136719 C 17.386719 8.136719 17.433594 8.136719 17.476562 8.136719 C 17.628906 8.136719 17.765625 8.144531 17.910156 8.203125 C 17.941406 8.214844 17.941406 8.214844 17.972656 8.226562 C 18.09375 8.277344 18.207031 8.332031 18.320312 8.398438 C 18.320312 8.410156 18.320312 8.425781 18.320312 8.4375 C 18.335938 8.441406 18.347656 8.449219 18.363281 8.453125 C 18.59375 8.554688 18.808594 8.855469 18.90625 9.082031 C 18.929688 9.148438 18.949219 9.214844 18.96875 9.285156 C 18.980469 9.335938 18.980469 9.335938 19.003906 9.355469 C 19.007812 9.382812 19.011719 9.414062 19.015625 9.441406 C 19.019531 9.507812 19.019531 9.507812 19.042969 9.570312 C 19.042969 9.613281 19.046875 9.65625 19.046875 9.695312 C 19.046875 9.710938 19.046875 9.722656 19.046875 9.738281 C 19.046875 9.78125 19.046875 9.824219 19.046875 9.871094 C 19.046875 9.902344 19.046875 9.933594 19.046875 9.964844 C 19.046875 10.035156 19.046875 10.101562 19.046875 10.171875 C 19.046875 10.277344 19.046875 10.386719 19.046875 10.496094 C 19.050781 10.804688 19.050781 11.109375 19.050781 11.417969 C 19.050781 11.589844 19.050781 11.757812 19.050781 11.929688 C 19.054688 12.019531 19.054688 12.109375 19.054688 12.199219 C 19.054688 12.285156 19.054688 12.367188 19.054688 12.453125 C 19.054688 12.484375 19.054688 12.515625 19.054688 12.546875 C 19.054688 12.589844 19.054688 12.628906 19.054688 12.671875 C 19.054688 12.695312 19.054688 12.71875 19.054688 12.746094 C 19.066406 12.839844 19.089844 12.921875 19.164062 12.988281 C 19.234375 13.011719 19.285156 13.015625 19.355469 13.007812 C 19.375 12.996094 19.394531 12.980469 19.414062 12.96875 C 19.433594 12.96875 19.453125 12.96875 19.472656 12.96875 C 19.515625 12.863281 19.515625 12.769531 19.515625 12.660156 C 19.515625 12.640625 19.519531 12.621094 19.519531 12.601562 C 19.519531 12.558594 19.519531 12.519531 19.519531 12.476562 C 19.519531 12.410156 19.519531 12.347656 19.519531 12.28125 C 19.519531 12.140625 19.519531 12 19.523438 11.859375 C 19.523438 11.699219 19.523438 11.539062 19.523438 11.375 C 19.523438 11.3125 19.523438 11.246094 19.523438 11.183594 C 19.527344 11.003906 19.527344 10.820312 19.546875 10.640625 C 19.550781 10.628906 19.550781 10.613281 19.554688 10.597656 C 19.566406 10.503906 19.589844 10.417969 19.628906 10.332031 C 19.652344 10.289062 19.660156 10.242188 19.667969 10.195312 C 19.679688 10.195312 19.695312 10.195312 19.707031 10.195312 C 19.710938 10.179688 19.710938 10.167969 19.714844 10.152344 C 19.757812 9.972656 19.914062 9.820312 20.039062 9.6875 C 20.054688 9.671875 20.066406 9.65625 20.082031 9.644531 C 20.117188 9.609375 20.117188 9.609375 20.15625 9.609375 C 20.15625 9.597656 20.15625 9.582031 20.15625 9.570312 C 20.472656 9.324219 20.8125 9.210938 21.210938 9.207031 C 21.230469 9.207031 21.25 9.207031 21.269531 9.207031 C 21.464844 9.210938 21.640625 9.253906 21.816406 9.335938 C 21.855469 9.347656 21.894531 9.363281 21.933594 9.375 C 21.933594 9.386719 21.933594 9.402344 21.933594 9.414062 C 21.945312 9.414062 21.960938 9.417969 21.972656 9.417969 C 22.046875 9.4375 22.101562 9.472656 22.167969 9.511719 C 22.167969 9.523438 22.167969 9.539062 22.167969 9.550781 C 22.179688 9.558594 22.191406 9.5625 22.203125 9.570312 C 22.230469 9.582031 22.257812 9.597656 22.285156 9.609375 C 22.285156 9.621094 22.285156 9.636719 22.285156 9.648438 C 22.304688 9.65625 22.304688 9.65625 22.324219 9.664062 C 22.363281 9.6875 22.363281 9.6875 22.382812 9.746094 C 22.394531 9.746094 22.410156 9.746094 22.421875 9.746094 C 22.460938 9.785156 22.460938 9.785156 22.503906 9.839844 C 22.515625 9.859375 22.53125 9.875 22.546875 9.894531 C 22.578125 9.941406 22.578125 9.941406 22.578125 10 C 22.589844 10 22.605469 10 22.617188 10 C 22.640625 10.050781 22.667969 10.105469 22.691406 10.15625 C 22.699219 10.171875 22.707031 10.1875 22.714844 10.203125 C 22.855469 10.496094 22.855469 10.796875 22.855469 11.117188 C 22.855469 11.160156 22.855469 11.199219 22.855469 11.242188 C 22.855469 11.359375 22.855469 11.472656 22.855469 11.589844 C 22.855469 11.710938 22.855469 11.835938 22.855469 11.960938 C 22.855469 12.191406 22.855469 12.417969 22.855469 12.648438 C 22.855469 12.859375 22.855469 13.074219 22.855469 13.285156 C 22.855469 13.304688 22.855469 13.304688 22.855469 13.328125 C 22.855469 13.386719 22.855469 13.441406 22.855469 13.5 C 22.855469 14.035156 22.855469 14.570312 22.855469 15.109375 C 22.855469 15.585938 22.855469 16.058594 22.855469 16.535156 C 22.855469 17.070312 22.855469 17.605469 22.855469 18.140625 C 22.855469 18.199219 22.855469 18.253906 22.855469 18.3125 C 22.855469 18.328125 22.855469 18.339844 22.855469 18.355469 C 22.855469 18.566406 22.855469 18.777344 22.855469 18.988281 C 22.855469 19.230469 22.855469 19.472656 22.855469 19.714844 C 22.855469 19.835938 22.855469 19.957031 22.855469 20.082031 C 22.855469 20.195312 22.855469 20.308594 22.855469 20.421875 C 22.855469 20.460938 22.855469 20.5 22.855469 20.542969 C 22.855469 20.742188 22.851562 20.9375 22.835938 21.136719 C 22.832031 21.164062 22.832031 21.164062 22.828125 21.1875 C 22.8125 21.34375 22.785156 21.492188 22.734375 21.640625 C 22.71875 21.710938 22.703125 21.78125 22.691406 21.851562 C 22.679688 21.90625 22.664062 21.945312 22.636719 21.992188 C 22.628906 22.023438 22.628906 22.023438 22.617188 22.058594 C 22.597656 22.128906 22.570312 22.195312 22.539062 22.265625 C 22.53125 22.292969 22.523438 22.320312 22.515625 22.34375 C 22.480469 22.449219 22.429688 22.546875 22.378906 22.644531 C 22.367188 22.660156 22.359375 22.679688 22.347656 22.699219 C 22.28125 22.824219 22.207031 22.945312 22.128906 23.066406 C 22.117188 23.085938 22.109375 23.101562 22.097656 23.121094 C 22.085938 23.140625 22.085938 23.140625 22.070312 23.164062 C 22.058594 23.164062 22.042969 23.164062 22.03125 23.164062 C 22.023438 23.179688 22.019531 23.195312 22.011719 23.210938 C 21.992188 23.261719 21.992188 23.261719 21.972656 23.300781 C 21.960938 23.300781 21.945312 23.300781 21.933594 23.300781 C 21.929688 23.3125 21.925781 23.328125 21.921875 23.34375 C 21.886719 23.414062 21.839844 23.464844 21.78125 23.523438 C 21.761719 23.546875 21.738281 23.566406 21.71875 23.589844 C 21.707031 23.601562 21.699219 23.613281 21.6875 23.625 C 21.65625 23.65625 21.625 23.691406 21.597656 23.726562 C 21.535156 23.800781 21.460938 23.863281 21.386719 23.925781 C 21.375 23.933594 21.363281 23.945312 21.351562 23.953125 C 20.894531 24.335938 20.894531 24.335938 20.800781 24.335938 C 20.800781 24.347656 20.800781 24.363281 20.800781 24.375 C 20.777344 24.386719 20.777344 24.386719 20.753906 24.398438 C 20.625 24.460938 20.625 24.460938 20.503906 24.535156 C 20.441406 24.574219 20.375 24.601562 20.304688 24.628906 C 20.257812 24.648438 20.21875 24.667969 20.175781 24.6875 C 20.105469 24.726562 20.03125 24.746094 19.953125 24.769531 C 19.902344 24.785156 19.855469 24.804688 19.808594 24.824219 C 19.699219 24.867188 19.585938 24.894531 19.472656 24.921875 C 19.457031 24.925781 19.441406 24.929688 19.425781 24.933594 C 19.324219 24.957031 19.226562 24.96875 19.125 24.976562 C 19.082031 24.976562 19.082031 24.976562 19.0625 25 C 19.019531 25 18.972656 25.003906 18.929688 25.003906 C 18.914062 25.003906 18.898438 25.003906 18.882812 25.003906 C 18.835938 25.003906 18.785156 25.003906 18.738281 25.003906 C 18.703125 25.003906 18.667969 25.003906 18.632812 25.003906 C 18.535156 25.003906 18.441406 25.003906 18.34375 25.003906 C 18.238281 25.003906 18.136719 25.003906 18.03125 25.003906 C 17.828125 25.003906 17.625 25.003906 17.421875 25.003906 C 17.253906 25.003906 17.089844 25.003906 16.921875 25.003906 C 16.898438 25.003906 16.875 25.003906 16.851562 25.003906 C 16.804688 25.003906 16.757812 25.003906 16.710938 25.003906 C 16.261719 25.003906 15.8125 25.003906 15.363281 25.003906 C 14.976562 25.003906 14.59375 25.003906 14.207031 25.003906 C 13.761719 25.003906 13.3125 25.003906 12.867188 25.003906 C 12.820312 25.003906 12.773438 25.003906 12.726562 25.003906 C 12.703125 25.003906 12.679688 25.003906 12.652344 25.003906 C 12.488281 25.003906 12.324219 25.003906 12.15625 25.003906 C 11.957031 25.003906 11.753906 25.003906 11.550781 25.003906 C 11.449219 25.003906 11.347656 25.003906 11.242188 25.003906 C 11.148438 25.003906 11.054688 25.003906 10.960938 25.003906 C 10.925781 25.003906 10.894531 25.003906 10.859375 25.003906 C 10.8125 25.003906 10.765625 25.003906 10.71875 25.003906 C 10.695312 25.003906 10.667969 25.003906 10.644531 25.003906 C 10.585938 25 10.585938 25 10.566406 24.980469 C 10.535156 24.976562 10.507812 24.976562 10.476562 24.972656 C 10.34375 24.964844 10.222656 24.929688 10.097656 24.894531 C 10.058594 24.882812 10.019531 24.871094 9.980469 24.863281 C 9.960938 24.855469 9.960938 24.855469 9.941406 24.851562 C 9.90625 24.84375 9.867188 24.832031 9.832031 24.824219 C 9.761719 24.804688 9.695312 24.777344 9.628906 24.746094 C 9.597656 24.734375 9.566406 24.726562 9.535156 24.714844 C 9.386719 24.664062 9.253906 24.585938 9.121094 24.511719 C 9.085938 24.496094 9.054688 24.476562 9.019531 24.460938 C 8.886719 24.386719 8.757812 24.304688 8.632812 24.21875 C 8.613281 24.207031 8.59375 24.191406 8.574219 24.179688 C 8.558594 24.167969 8.539062 24.15625 8.519531 24.144531 C 8.503906 24.132812 8.488281 24.121094 8.472656 24.109375 C 8.460938 24.101562 8.449219 24.089844 8.4375 24.082031 C 8.4375 24.070312 8.4375 24.054688 8.4375 24.042969 C 8.425781 24.039062 8.414062 24.03125 8.402344 24.027344 C 8.355469 24.003906 8.320312 23.972656 8.28125 23.9375 C 8.238281 23.898438 8.199219 23.863281 8.152344 23.828125 C 8.097656 23.78125 8.054688 23.730469 8.007812 23.675781 C 7.949219 23.609375 7.886719 23.542969 7.828125 23.480469 C 7.792969 23.4375 7.792969 23.4375 7.792969 23.398438 C 7.78125 23.398438 7.765625 23.398438 7.753906 23.398438 C 7.726562 23.363281 7.699219 23.328125 7.671875 23.292969 C 7.660156 23.273438 7.644531 23.253906 7.628906 23.234375 C 7.597656 23.183594 7.597656 23.183594 7.597656 23.144531 C 7.585938 23.144531 7.570312 23.144531 7.558594 23.144531 C 7.546875 23.125 7.539062 23.105469 7.527344 23.085938 C 7.496094 23.03125 7.460938 22.976562 7.425781 22.925781 C 7.367188 22.84375 7.320312 22.757812 7.273438 22.671875 C 7.230469 22.585938 7.179688 22.503906 7.128906 22.421875 C 7.109375 22.390625 7.089844 22.359375 7.070312 22.324219 C 7.03125 22.257812 6.988281 22.1875 6.945312 22.121094 C 6.886719 22.03125 6.835938 21.941406 6.785156 21.847656 C 6.742188 21.765625 6.691406 21.683594 6.640625 21.601562 C 6.621094 21.570312 6.601562 21.539062 6.582031 21.503906 C 6.542969 21.4375 6.5 21.367188 6.453125 21.300781 C 6.398438 21.210938 6.347656 21.121094 6.296875 21.03125 C 6.261719 20.960938 6.21875 20.890625 6.175781 20.824219 C 6.152344 20.785156 6.140625 20.75 6.132812 20.703125 C 6.121094 20.703125 6.105469 20.703125 6.09375 20.703125 C 6.078125 20.675781 6.0625 20.648438 6.046875 20.617188 C 6.035156 20.601562 6.027344 20.585938 6.015625 20.570312 C 5.996094 20.527344 5.996094 20.527344 5.996094 20.46875 C 5.984375 20.46875 5.96875 20.46875 5.957031 20.46875 C 5.949219 20.4375 5.945312 20.40625 5.9375 20.371094 C 5.925781 20.371094 5.910156 20.371094 5.898438 20.371094 C 5.882812 20.34375 5.867188 20.316406 5.851562 20.285156 C 5.839844 20.269531 5.832031 20.253906 5.820312 20.238281 C 5.800781 20.195312 5.800781 20.195312 5.800781 20.136719 C 5.789062 20.136719 5.773438 20.136719 5.761719 20.136719 C 5.746094 20.109375 5.730469 20.082031 5.714844 20.054688 C 5.707031 20.039062 5.695312 20.023438 5.6875 20.007812 C 5.667969 19.964844 5.652344 19.929688 5.644531 19.882812 C 5.632812 19.882812 5.617188 19.882812 5.605469 19.882812 C 5.59375 19.859375 5.59375 19.859375 5.582031 19.832031 C 5.570312 19.8125 5.558594 19.789062 5.550781 19.769531 C 5.539062 19.746094 5.527344 19.726562 5.519531 19.703125 C 5.492188 19.648438 5.492188 19.648438 5.449219 19.609375 C 5.449219 19.589844 5.449219 19.570312 5.449219 19.550781 C 5.4375 19.550781 5.421875 19.550781 5.410156 19.550781 C 5.402344 19.539062 5.394531 19.523438 5.386719 19.511719 C 5.285156 19.320312 5.171875 19.132812 5.058594 18.949219 C 5.023438 18.894531 4.992188 18.839844 4.960938 18.785156 C 4.921875 18.714844 4.878906 18.648438 4.835938 18.578125 C 4.777344 18.484375 4.71875 18.386719 4.664062 18.285156 C 4.621094 18.203125 4.574219 18.125 4.523438 18.046875 C 4.460938 17.953125 4.402344 17.855469 4.347656 17.753906 C 4.308594 17.679688 4.261719 17.601562 4.21875 17.527344 C 4.210938 17.515625 4.203125 17.5 4.191406 17.484375 C 4.136719 17.390625 4.082031 17.296875 4.023438 17.207031 C 4.003906 17.167969 3.992188 17.132812 3.984375 17.089844 C 3.972656 17.089844 3.957031 17.089844 3.945312 17.089844 C 3.929688 17.0625 3.914062 17.035156 3.898438 17.003906 C 3.886719 16.988281 3.878906 16.972656 3.867188 16.957031 C 3.847656 16.914062 3.847656 16.914062 3.847656 16.855469 C 3.835938 16.855469 3.820312 16.855469 3.808594 16.855469 C 3.800781 16.824219 3.796875 16.789062 3.789062 16.757812 C 3.777344 16.757812 3.761719 16.757812 3.75 16.757812 C 3.742188 16.746094 3.734375 16.730469 3.726562 16.71875 C 3.667969 16.605469 3.605469 16.496094 3.539062 16.390625 C 3.515625 16.351562 3.503906 16.316406 3.496094 16.269531 C 3.484375 16.269531 3.46875 16.269531 3.457031 16.269531 C 3.449219 16.253906 3.441406 16.238281 3.433594 16.21875 C 3.421875 16.199219 3.410156 16.175781 3.402344 16.15625 C 3.390625 16.132812 3.378906 16.113281 3.371094 16.089844 C 3.34375 16.035156 3.34375 16.035156 3.300781 15.996094 C 3.300781 15.976562 3.300781 15.957031 3.300781 15.9375 C 3.289062 15.9375 3.273438 15.9375 3.261719 15.9375 C 3.253906 15.925781 3.246094 15.910156 3.238281 15.898438 C 3.230469 15.878906 3.21875 15.859375 3.210938 15.84375 C 3.195312 15.816406 3.195312 15.816406 3.179688 15.789062 C 3.132812 15.699219 3.078125 15.613281 3.027344 15.527344 C 3.007812 15.496094 2.992188 15.464844 2.972656 15.433594 C 2.953125 15.402344 2.933594 15.371094 2.917969 15.34375 C 2.90625 15.324219 2.894531 15.308594 2.886719 15.292969 C 2.816406 15.175781 2.746094 15.0625 2.679688 14.949219 C 2.613281 14.839844 2.546875 14.730469 2.488281 14.617188 C 2.457031 14.566406 2.425781 14.515625 2.390625 14.464844 C 2.160156 14.105469 2.089844 13.65625 2.171875 13.242188 C 2.238281 12.984375 2.351562 12.695312 2.539062 12.5 C 2.550781 12.5 2.566406 12.5 2.578125 12.5 C 2.585938 12.484375 2.585938 12.484375 2.59375 12.464844 C 2.644531 12.371094 2.738281 12.300781 2.832031 12.257812 C 2.84375 12.253906 2.859375 12.25 2.871094 12.246094 C 2.871094 12.234375 2.871094 12.21875 2.871094 12.207031 C 3.183594 12.035156 3.183594 12.035156 3.320312 11.992188 C 3.339844 11.984375 3.359375 11.980469 3.382812 11.972656 C 3.46875 11.949219 3.550781 11.945312 3.640625 11.941406 C 3.660156 11.9375 3.675781 11.9375 3.695312 11.9375 C 4.046875 11.925781 4.335938 11.988281 4.648438 12.148438 C 4.648438 12.160156 4.648438 12.175781 4.648438 12.1875 C 4.679688 12.195312 4.710938 12.199219 4.746094 12.207031 C 4.746094 12.21875 4.746094 12.234375 4.746094 12.246094 C 4.761719 12.25 4.761719 12.25 4.78125 12.253906 C 4.824219 12.265625 4.863281 12.28125 4.902344 12.304688 C 4.902344 12.316406 4.902344 12.332031 4.902344 12.34375 C 4.914062 12.347656 4.925781 12.347656 4.9375 12.351562 C 4.980469 12.363281 5.011719 12.378906 5.050781 12.402344 C 5.0625 12.410156 5.074219 12.421875 5.085938 12.429688 C 5.101562 12.4375 5.113281 12.445312 5.128906 12.453125 C 5.21875 12.511719 5.3125 12.570312 5.410156 12.621094 C 5.484375 12.664062 5.558594 12.707031 5.628906 12.757812 C 5.675781 12.789062 5.722656 12.816406 5.769531 12.84375 C 5.785156 12.851562 5.796875 12.859375 5.8125 12.867188 C 5.84375 12.886719 5.875 12.902344 5.90625 12.921875 C 5.921875 12.929688 5.933594 12.9375 5.949219 12.945312 C 5.960938 12.953125 5.976562 12.960938 5.988281 12.96875 C 5.996094 12.972656 6.007812 12.980469 6.015625 12.988281 C 6.015625 13 6.015625 13.015625 6.015625 13.027344 C 6.027344 13.03125 6.039062 13.03125 6.050781 13.035156 C 6.09375 13.046875 6.132812 13.066406 6.175781 13.085938 C 6.191406 13.09375 6.203125 13.101562 6.21875 13.109375 C 6.230469 13.113281 6.238281 13.121094 6.25 13.125 C 6.25 13.136719 6.25 13.152344 6.25 13.164062 C 6.300781 13.183594 6.351562 13.203125 6.40625 13.222656 C 6.40625 13.234375 6.40625 13.25 6.40625 13.261719 C 6.421875 13.265625 6.421875 13.265625 6.441406 13.269531 C 6.484375 13.28125 6.523438 13.296875 6.5625 13.320312 C 6.5625 13.332031 6.5625 13.347656 6.5625 13.359375 C 6.574219 13.363281 6.585938 13.363281 6.597656 13.367188 C 6.644531 13.378906 6.679688 13.398438 6.71875 13.425781 C 6.734375 13.433594 6.75 13.441406 6.765625 13.453125 C 6.785156 13.460938 6.800781 13.472656 6.816406 13.484375 C 6.835938 13.492188 6.851562 13.503906 6.871094 13.515625 C 7.007812 13.597656 7.144531 13.683594 7.28125 13.769531 C 7.359375 13.820312 7.433594 13.867188 7.519531 13.90625 C 7.519531 13.917969 7.519531 13.933594 7.519531 13.945312 C 7.53125 13.949219 7.542969 13.949219 7.554688 13.953125 C 7.597656 13.964844 7.636719 13.980469 7.675781 14.003906 C 7.675781 14.015625 7.675781 14.03125 7.675781 14.042969 C 7.707031 14.050781 7.742188 14.054688 7.773438 14.0625 C 7.773438 14.074219 7.773438 14.089844 7.773438 14.101562 C 7.785156 14.105469 7.796875 14.105469 7.808594 14.109375 C 7.851562 14.121094 7.890625 14.136719 7.929688 14.160156 C 7.929688 14.171875 7.929688 14.1875 7.929688 14.199219 C 7.941406 14.199219 7.949219 14.203125 7.960938 14.203125 C 8.027344 14.226562 8.082031 14.261719 8.144531 14.296875 C 8.144531 14.285156 8.144531 14.273438 8.144531 14.261719 C 8.144531 13.039062 8.140625 11.816406 8.140625 10.59375 C 8.140625 10.578125 8.140625 10.558594 8.140625 10.539062 C 8.140625 10.144531 8.140625 9.746094 8.140625 9.347656 C 8.140625 9.152344 8.140625 8.960938 8.140625 8.765625 C 8.140625 8.746094 8.140625 8.726562 8.140625 8.707031 C 8.140625 8.078125 8.136719 7.449219 8.136719 6.824219 C 8.136719 6.175781 8.136719 5.53125 8.136719 4.886719 C 8.136719 4.796875 8.136719 4.703125 8.136719 4.613281 C 8.136719 4.597656 8.136719 4.578125 8.136719 4.558594 C 8.136719 4.269531 8.132812 3.980469 8.132812 3.695312 C 8.132812 3.402344 8.132812 3.113281 8.132812 2.824219 C 8.132812 2.648438 8.132812 2.476562 8.132812 2.304688 C 8.132812 2.191406 8.132812 2.074219 8.132812 1.960938 C 8.132812 1.894531 8.132812 1.828125 8.132812 1.761719 C 8.128906 1.289062 8.214844 0.898438 8.535156 0.527344 C 8.546875 0.527344 8.5625 0.527344 8.574219 0.527344 C 8.582031 0.507812 8.585938 0.488281 8.59375 0.46875 C 8.605469 0.46875 8.621094 0.46875 8.632812 0.46875 C 8.632812 0.457031 8.632812 0.441406 8.632812 0.429688 C 8.644531 0.429688 8.660156 0.429688 8.671875 0.429688 C 8.671875 0.417969 8.671875 0.402344 8.671875 0.390625 C 8.71875 0.355469 8.765625 0.320312 8.816406 0.285156 C 8.832031 0.277344 8.84375 0.265625 8.859375 0.257812 C 8.960938 0.1875 9.066406 0.125 9.179688 0.078125 C 9.195312 0.0703125 9.210938 0.0625 9.230469 0.0585938 C 9.289062 0.0351562 9.351562 0.0273438 9.414062 0.0195312 C 9.453125 -0.0195312 9.53125 -0.00390625 9.582031 -0.00390625 Z M 9.582031 -0.00390625 "/>
</g>
</svg>
